<svg xmlns="http://www.w3.org/2000/svg" xmlns:xlink="http://www.w3.org/1999/xlink" width="161" zoomAndPan="magnify" viewBox="0 0 120.75 30.000001" height="40" preserveAspectRatio="xMidYMid meet" version="1.0"><defs><g/><clipPath id="5719c53143"><path d="M 8 7 L 34 7 L 34 21 L 8 21 Z M 8 7 " clip-rule="nonzero"/></clipPath><clipPath id="013798f1a7"><path d="M -0.800781 10.714844 L 30.800781 -8.558594 L 43.652344 12.507812 L 12.050781 31.78125 Z M -0.800781 10.714844 " clip-rule="nonzero"/></clipPath><clipPath id="f07b30accb"><path d="M -0.800781 10.714844 L 30.800781 -8.558594 L 43.652344 12.507812 L 12.050781 31.78125 Z M -0.800781 10.714844 " clip-rule="nonzero"/></clipPath><clipPath id="fd06baf04c"><path d="M 12 9 L 33 9 L 33 24 L 12 24 Z M 12 9 " clip-rule="nonzero"/></clipPath><clipPath id="21f5e19132"><path d="M -0.800781 10.714844 L 30.800781 -8.558594 L 43.652344 12.507812 L 12.050781 31.78125 Z M -0.800781 10.714844 " clip-rule="nonzero"/></clipPath><clipPath id="c894fc9ff0"><path d="M -0.800781 10.714844 L 30.800781 -8.558594 L 43.652344 12.507812 L 12.050781 31.78125 Z M -0.800781 10.714844 " clip-rule="nonzero"/></clipPath><clipPath id="e5fca1e335"><path d="M 16 0 L 38 0 L 38 18 L 16 18 Z M 16 0 " clip-rule="nonzero"/></clipPath><clipPath id="1c18e0f9af"><path d="M -0.800781 10.714844 L 30.800781 -8.558594 L 43.652344 12.507812 L 12.050781 31.78125 Z M -0.800781 10.714844 " clip-rule="nonzero"/></clipPath><clipPath id="cfb5632209"><path d="M -0.800781 10.714844 L 30.800781 -8.558594 L 43.652344 12.507812 L 12.050781 31.78125 Z M -0.800781 10.714844 " clip-rule="nonzero"/></clipPath><clipPath id="0a0522c88c"><path d="M 3 3 L 24 3 L 24 28 L 3 28 Z M 3 3 " clip-rule="nonzero"/></clipPath><clipPath id="358f98fb9d"><path d="M -0.800781 10.714844 L 30.800781 -8.558594 L 43.652344 12.507812 L 12.050781 31.78125 Z M -0.800781 10.714844 " clip-rule="nonzero"/></clipPath><clipPath id="270a59814e"><path d="M -0.800781 10.714844 L 30.800781 -8.558594 L 43.652344 12.507812 L 12.050781 31.78125 Z M -0.800781 10.714844 " clip-rule="nonzero"/></clipPath></defs><g clip-path="url(#5719c53143)"><g clip-path="url(#013798f1a7)"><g clip-path="url(#f07b30accb)"><path fill="#ffffff" d="M 8.691406 15.457031 C 8.210938 14.390625 7.992188 13.210938 8.035156 12.046875 C 8.066406 12.171875 8.101562 12.300781 8.144531 12.425781 C 8.507812 13.605469 9.171875 14.695312 10.050781 15.550781 L 10.214844 15.710938 L 10.386719 15.863281 C 10.496094 15.964844 10.632812 16.066406 10.761719 16.167969 C 10.828125 16.222656 10.875 16.253906 10.929688 16.292969 L 11.089844 16.402344 L 11.15625 16.449219 L 11.203125 16.480469 L 11.292969 16.542969 C 11.351562 16.582031 11.414062 16.625 11.476562 16.664062 C 11.96875 16.980469 12.492188 17.253906 13.046875 17.46875 C 13.597656 17.6875 14.171875 17.84375 14.753906 17.9375 C 15.339844 18.027344 15.925781 18.054688 16.5 18.023438 C 16.617188 18.015625 16.734375 18.007812 16.847656 17.996094 C 17.007812 17.988281 17.167969 17.976562 17.328125 17.957031 C 17.914062 17.886719 18.5 17.734375 19.070312 17.523438 C 19.300781 17.445312 19.527344 17.363281 19.75 17.277344 C 20.75 16.878906 21.664062 16.363281 22.511719 15.808594 C 23.355469 15.25 24.136719 14.644531 24.863281 14.019531 C 25.042969 13.863281 25.222656 13.703125 25.398438 13.546875 C 25.484375 13.464844 25.574219 13.382812 25.660156 13.304688 C 25.742188 13.226562 25.828125 13.148438 25.910156 13.070312 C 26.074219 12.914062 26.238281 12.757812 26.402344 12.601562 C 26.5625 12.449219 26.722656 12.300781 26.882812 12.152344 C 27.523438 11.5625 28.15625 11.011719 28.800781 10.515625 C 29.441406 10.023438 30.089844 9.578125 30.734375 9.183594 C 31.375 8.789062 32.015625 8.441406 32.636719 8.132812 C 32.992188 7.957031 33.339844 7.796875 33.679688 7.644531 C 33.304688 7.863281 32.917969 8.101562 32.523438 8.355469 C 31.941406 8.734375 31.347656 9.152344 30.753906 9.621094 C 30.160156 10.085938 29.570312 10.601562 28.988281 11.167969 C 28.40625 11.734375 27.839844 12.355469 27.273438 13.015625 C 27.132812 13.179688 26.988281 13.347656 26.847656 13.515625 C 26.703125 13.691406 26.558594 13.863281 26.414062 14.039062 C 26.339844 14.125 26.265625 14.214844 26.195312 14.300781 C 26.117188 14.390625 26.039062 14.480469 25.960938 14.570312 C 25.804688 14.75 25.644531 14.925781 25.484375 15.101562 C 24.835938 15.808594 24.128906 16.5 23.355469 17.152344 C 22.578125 17.800781 21.730469 18.417969 20.78125 18.929688 C 19.835938 19.441406 18.78125 19.851562 17.644531 20.046875 C 17.074219 20.144531 16.488281 20.191406 15.898438 20.164062 C 15.308594 20.140625 14.71875 20.054688 14.144531 19.902344 C 13.574219 19.75 13.019531 19.539062 12.492188 19.28125 C 12.425781 19.25 12.363281 19.214844 12.296875 19.183594 L 12.199219 19.132812 L 12.152344 19.105469 L 12.082031 19.066406 L 11.910156 18.976562 C 11.851562 18.945312 11.800781 18.917969 11.726562 18.871094 C 11.585938 18.789062 11.4375 18.699219 11.320312 18.613281 L 11.132812 18.480469 L 10.949219 18.34375 C 9.976562 17.59375 9.191406 16.589844 8.691406 15.457031 " fill-opacity="1" fill-rule="nonzero"/></g></g></g><g clip-path="url(#fd06baf04c)"><g clip-path="url(#21f5e19132)"><g clip-path="url(#c894fc9ff0)"><path fill="#f68712" d="M 12.890625 21.589844 L 12.964844 21.628906 L 13.015625 21.652344 L 13.117188 21.695312 C 13.183594 21.726562 13.253906 21.757812 13.320312 21.785156 C 13.863281 22.015625 14.4375 22.199219 15.023438 22.320312 C 15.609375 22.441406 16.210938 22.5 16.808594 22.492188 C 17.40625 22.484375 17.996094 22.40625 18.566406 22.277344 C 19.703125 22.015625 20.742188 21.542969 21.671875 20.976562 C 22.605469 20.40625 23.425781 19.738281 24.175781 19.039062 C 24.921875 18.335938 25.597656 17.601562 26.210938 16.851562 C 26.367188 16.664062 26.515625 16.476562 26.664062 16.289062 C 26.738281 16.195312 26.8125 16.097656 26.886719 16.003906 C 26.953125 15.910156 27.023438 15.816406 27.09375 15.726562 C 27.230469 15.542969 27.367188 15.359375 27.503906 15.175781 C 27.636719 14.996094 27.773438 14.820312 27.90625 14.644531 C 28.441406 13.945312 28.980469 13.289062 29.535156 12.6875 C 30.089844 12.082031 30.660156 11.53125 31.234375 11.027344 C 31.671875 10.640625 32.109375 10.285156 32.546875 9.957031 C 32.417969 10.089844 32.289062 10.222656 32.160156 10.359375 C 31.636719 10.917969 31.125 11.527344 30.628906 12.179688 C 30.136719 12.835938 29.667969 13.542969 29.203125 14.289062 C 29.085938 14.476562 28.96875 14.667969 28.851562 14.859375 C 28.738281 15.054688 28.617188 15.25 28.5 15.445312 C 28.441406 15.542969 28.378906 15.644531 28.320312 15.742188 C 28.257812 15.84375 28.191406 15.945312 28.128906 16.046875 C 28 16.25 27.867188 16.453125 27.734375 16.652344 C 27.195312 17.460938 26.597656 18.257812 25.921875 19.03125 C 25.246094 19.800781 24.492188 20.546875 23.625 21.203125 C 22.753906 21.859375 21.765625 22.433594 20.65625 22.804688 C 20.105469 22.992188 19.527344 23.125 18.933594 23.191406 C 18.339844 23.257812 17.734375 23.261719 17.140625 23.195312 C 16.542969 23.132812 15.957031 23.007812 15.390625 22.832031 C 15.320312 22.8125 15.25 22.789062 15.179688 22.765625 L 15.074219 22.726562 L 15.023438 22.710938 L 14.945312 22.679688 L 14.761719 22.617188 C 14.699219 22.59375 14.644531 22.578125 14.558594 22.542969 C 14.410156 22.476562 14.246094 22.414062 14.113281 22.347656 L 13.90625 22.242188 L 13.703125 22.132812 C 13.394531 21.960938 13.101562 21.769531 12.820312 21.558594 L 12.890625 21.589844 " fill-opacity="1" fill-rule="nonzero"/></g></g></g><g clip-path="url(#e5fca1e335)"><g clip-path="url(#1c18e0f9af)"><g clip-path="url(#cfb5632209)"><path fill="#f68712" d="M 24.6875 11.523438 L 19.921875 12.660156 L 25.113281 11.765625 L 17.085938 14.746094 L 24.933594 12.390625 L 20.542969 14.5625 L 25.402344 12.535156 L 18.238281 17.226562 L 24.703125 13.5625 C 24.839844 13.441406 24.972656 13.324219 25.097656 13.210938 L 25.355469 12.972656 L 25.601562 12.742188 L 26.089844 12.277344 C 26.253906 12.121094 26.417969 11.96875 26.578125 11.820312 C 27.292969 11.164062 27.929688 10.617188 28.523438 10.160156 C 29.167969 9.667969 29.832031 9.210938 30.5 8.800781 L 30.5625 8.761719 C 31.03125 8.476562 31.511719 8.207031 32.03125 7.9375 L 37.425781 2.339844 L 31.371094 7.867188 L 34.390625 4.003906 L 30.886719 7.941406 L 35.308594 0.605469 L 30.636719 7.339844 L 32.71875 2.902344 L 30.183594 7.519531 L 32.859375 -0.613281 L 29.804688 6.992188 L 30.847656 2.203125 L 29.398438 7.265625 L 30.199219 -1.257812 L 28.914062 6.835938 L 28.863281 1.933594 L 28.582031 7.195312 L 27.464844 -1.292969 L 28.011719 6.882812 L 26.871094 2.117188 L 27.765625 7.304688 L 24.789062 -0.722656 L 27.144531 7.128906 L 24.972656 2.734375 L 27 7.597656 L 22.308594 0.433594 L 26.351562 7.5625 L 23.253906 3.761719 L 26.3125 8.050781 L 20.148438 2.109375 L 25.671875 8.160156 L 21.8125 5.144531 L 25.746094 8.644531 L 18.414062 4.226562 L 25.148438 8.894531 L 20.710938 6.816406 L 25.328125 9.351562 L 17.191406 6.675781 L 24.796875 9.730469 L 20.007812 8.6875 L 25.074219 10.132812 L 16.546875 9.335938 L 24.640625 10.621094 L 19.742188 10.667969 L 25.003906 10.953125 L 16.511719 12.070312 L 24.6875 11.523438 " fill-opacity="1" fill-rule="nonzero"/></g></g></g><g clip-path="url(#0a0522c88c)"><g clip-path="url(#358f98fb9d)"><g clip-path="url(#270a59814e)"><path fill="#ffffff" d="M 9.753906 4.292969 C 10.042969 4.113281 10.339844 3.949219 10.636719 3.800781 C 5.484375 7.546875 3.988281 14.683594 7.363281 20.21875 C 10.742188 25.753906 17.773438 27.691406 23.460938 24.824219 C 23.191406 25.019531 22.910156 25.207031 22.621094 25.386719 C 16.792969 28.9375 9.191406 27.097656 5.640625 21.273438 C 2.085938 15.445312 3.929688 7.84375 9.753906 4.292969 " fill-opacity="1" fill-rule="nonzero"/></g></g></g><g fill="#ffffff" fill-opacity="1"><g transform="translate(34.584251, 21.484264)"><g><path d="M 7.90625 5.234375 C 8.195312 5.242188 8.484375 5.234375 8.765625 5.203125 C 9.054688 5.171875 9.332031 5.097656 9.59375 4.984375 C 10.375 4.609375 10.640625 4.015625 10.390625 3.203125 C 10.253906 2.785156 10.039062 2.40625 9.75 2.0625 C 9.414062 1.632812 9.050781 1.238281 8.65625 0.875 C 8.257812 0.519531 7.847656 0.175781 7.421875 -0.15625 C 7.179688 -0.332031 6.957031 -0.328125 6.75 -0.140625 C 6.09375 0.347656 5.503906 0.890625 4.984375 1.484375 C 4.765625 1.753906 4.570312 2.050781 4.40625 2.375 C 4.070312 3.175781 4.238281 3.851562 4.90625 4.40625 C 5.226562 4.65625 5.585938 4.835938 5.984375 4.953125 C 6.609375 5.140625 7.25 5.234375 7.90625 5.234375 Z M 8.296875 -1.21875 C 8.328125 -1.113281 8.375 -1.023438 8.4375 -0.953125 C 8.507812 -0.878906 8.582031 -0.820312 8.65625 -0.78125 C 8.707031 -0.738281 8.757812 -0.695312 8.8125 -0.65625 C 9.007812 -0.488281 9.207031 -0.3125 9.40625 -0.125 C 9.78125 0.195312 10.140625 0.519531 10.484375 0.84375 C 10.992188 1.320312 11.40625 1.867188 11.71875 2.484375 C 12.03125 3.109375 12.109375 3.710938 11.953125 4.296875 C 11.804688 4.890625 11.347656 5.363281 10.578125 5.71875 C 10.253906 5.863281 9.910156 5.960938 9.546875 6.015625 C 8.847656 6.097656 8.144531 6.128906 7.4375 6.109375 C 6.738281 6.085938 6.046875 5.988281 5.359375 5.8125 C 5.023438 5.71875 4.703125 5.597656 4.390625 5.453125 C 4.078125 5.304688 3.796875 5.113281 3.546875 4.875 C 2.660156 4.0625 2.472656 3.109375 2.984375 2.015625 C 3.203125 1.597656 3.472656 1.210938 3.796875 0.859375 C 4.316406 0.316406 4.875 -0.1875 5.46875 -0.65625 C 5.769531 -0.894531 5.914062 -1.066406 5.90625 -1.171875 C 5.90625 -1.285156 5.734375 -1.441406 5.390625 -1.640625 C 4.785156 -2.046875 4.171875 -2.453125 3.546875 -2.859375 C 3.222656 -3.066406 2.898438 -3.28125 2.578125 -3.5 C 2.378906 -3.632812 2.179688 -3.765625 1.984375 -3.890625 C 1.484375 -4.203125 0.988281 -4.53125 0.5 -4.875 C -0.0507812 -5.257812 -0.566406 -5.679688 -1.046875 -6.140625 C -1.523438 -6.597656 -1.941406 -7.117188 -2.296875 -7.703125 C -3.046875 -8.910156 -3.320312 -10.140625 -3.125 -11.390625 C -2.9375 -12.648438 -2.390625 -13.863281 -1.484375 -15.03125 C -0.585938 -16.195312 0.546875 -17.25 1.921875 -18.1875 C 3.296875 -19.125 4.78125 -19.878906 6.375 -20.453125 C 7.976562 -21.035156 9.578125 -21.367188 11.171875 -21.453125 C 12.765625 -21.546875 14.222656 -21.320312 15.546875 -20.78125 C 16.878906 -20.25 17.976562 -19.328125 18.84375 -18.015625 C 19 -17.773438 19.128906 -17.519531 19.234375 -17.25 C 19.335938 -16.988281 19.390625 -16.707031 19.390625 -16.40625 C 19.390625 -16.113281 19.253906 -15.925781 18.984375 -15.84375 C 18.796875 -15.800781 18.625 -15.804688 18.46875 -15.859375 C 18.3125 -15.910156 18.191406 -16 18.109375 -16.125 C 18.097656 -16.164062 18.085938 -16.210938 18.078125 -16.265625 C 18.066406 -16.285156 18.0625 -16.304688 18.0625 -16.328125 C 17.488281 -17.910156 16.640625 -19.039062 15.515625 -19.71875 C 14.398438 -20.394531 13.132812 -20.710938 11.71875 -20.671875 C 10.300781 -20.628906 8.851562 -20.316406 7.375 -19.734375 C 5.894531 -19.160156 4.503906 -18.425781 3.203125 -17.53125 C 1.910156 -16.644531 0.828125 -15.691406 -0.046875 -14.671875 C -0.929688 -13.648438 -1.476562 -12.65625 -1.6875 -11.6875 C -1.894531 -10.5 -1.691406 -9.394531 -1.078125 -8.375 C -0.578125 -7.507812 0.0625 -6.769531 0.84375 -6.15625 C 1.4375 -5.6875 2.046875 -5.238281 2.671875 -4.8125 C 3.234375 -4.457031 3.785156 -4.101562 4.328125 -3.75 C 5.085938 -3.269531 5.835938 -2.78125 6.578125 -2.28125 C 6.785156 -2.125 6.976562 -2.050781 7.15625 -2.0625 C 7.34375 -2.082031 7.535156 -2.160156 7.734375 -2.296875 C 8.722656 -2.890625 9.695312 -3.4375 10.65625 -3.9375 C 11.613281 -4.4375 12.144531 -4.570312 12.25 -4.34375 C 12.351562 -4.125 12.203125 -3.863281 11.796875 -3.5625 C 10.835938 -3.050781 9.914062 -2.476562 9.03125 -1.84375 C 8.976562 -1.820312 8.925781 -1.789062 8.875 -1.75 C 8.644531 -1.625 8.453125 -1.445312 8.296875 -1.21875 Z M 8.296875 -1.21875 "/></g></g></g><g fill="#ffffff" fill-opacity="1"><g transform="translate(45.557765, 21.484264)"><g><path d="M 10.65625 -4.296875 C 10.726562 -4.285156 10.78125 -4.257812 10.8125 -4.21875 C 10.84375 -4.1875 10.863281 -4.128906 10.875 -4.046875 C 10.875 -3.867188 10.703125 -3.65625 10.359375 -3.40625 C 10.015625 -3.164062 9.640625 -2.941406 9.234375 -2.734375 C 8.835938 -2.523438 8.550781 -2.394531 8.375 -2.34375 C 7.800781 -2.125 7.238281 -2.046875 6.6875 -2.109375 C 6.132812 -2.179688 5.648438 -2.472656 5.234375 -2.984375 C 4.972656 -3.347656 4.773438 -3.515625 4.640625 -3.484375 C 4.515625 -3.453125 4.359375 -3.289062 4.171875 -3 C 3.960938 -2.675781 3.628906 -2.289062 3.171875 -1.84375 C 2.648438 -1.457031 2.160156 -1.273438 1.703125 -1.296875 C 1.253906 -1.328125 0.875 -1.503906 0.5625 -1.828125 C 0.25 -2.160156 0.046875 -2.585938 -0.046875 -3.109375 C -0.140625 -3.628906 -0.0859375 -4.179688 0.109375 -4.765625 C 0.273438 -5.222656 0.617188 -5.414062 1.140625 -5.34375 C 1.273438 -5.3125 1.382812 -5.25 1.46875 -5.15625 C 1.550781 -5.0625 1.570312 -4.945312 1.53125 -4.8125 C 1.425781 -4.351562 1.382812 -3.894531 1.40625 -3.4375 C 1.394531 -3.132812 1.453125 -2.851562 1.578125 -2.59375 C 1.703125 -2.363281 1.867188 -2.320312 2.078125 -2.46875 C 2.296875 -2.625 2.515625 -2.84375 2.734375 -3.125 C 2.953125 -3.414062 3.125 -3.65625 3.25 -3.84375 C 3.28125 -3.894531 3.304688 -3.941406 3.328125 -3.984375 C 3.378906 -4.046875 3.425781 -4.113281 3.46875 -4.1875 C 3.625 -4.414062 3.785156 -4.640625 3.953125 -4.859375 C 4.253906 -5.203125 4.640625 -5.347656 5.109375 -5.296875 C 5.503906 -5.273438 5.785156 -5.078125 5.953125 -4.703125 C 6.273438 -3.878906 6.75 -3.425781 7.375 -3.34375 C 8.007812 -3.269531 8.691406 -3.46875 9.421875 -3.9375 C 9.609375 -4.070312 9.800781 -4.175781 10 -4.25 C 10.195312 -4.332031 10.414062 -4.347656 10.65625 -4.296875 Z M 10.65625 -4.296875 "/></g></g></g><g fill="#ffffff" fill-opacity="1"><g transform="translate(55.256279, 21.484264)"><g><path d="M 11.21875 -4 C 11.21875 -4 11.222656 -4 11.234375 -4 C 11.296875 -3.988281 11.359375 -3.96875 11.421875 -3.9375 C 11.484375 -3.90625 11.523438 -3.84375 11.546875 -3.75 C 11.578125 -3.59375 11.53125 -3.46875 11.40625 -3.375 C 10.894531 -3.019531 10.347656 -2.738281 9.765625 -2.53125 C 9.234375 -2.363281 8.703125 -2.253906 8.171875 -2.203125 C 7.640625 -2.160156 7.097656 -2.164062 6.546875 -2.21875 C 5.835938 -2.289062 5.265625 -2.628906 4.828125 -3.234375 C 4.691406 -3.421875 4.550781 -3.609375 4.40625 -3.796875 C 4.269531 -3.984375 4.128906 -4.175781 3.984375 -4.375 C 3.859375 -4.53125 3.703125 -4.546875 3.515625 -4.421875 C 3.285156 -4.265625 3.082031 -4.082031 2.90625 -3.875 C 2.726562 -3.664062 2.554688 -3.453125 2.390625 -3.234375 C 2.378906 -3.203125 2.367188 -3.175781 2.359375 -3.15625 C 2.296875 -3.082031 2.234375 -3 2.171875 -2.90625 C 2.097656 -2.769531 2.007812 -2.644531 1.90625 -2.53125 C 1.75 -2.34375 1.539062 -2.222656 1.28125 -2.171875 C 1.019531 -2.117188 0.769531 -2.140625 0.53125 -2.234375 C 0.351562 -2.328125 0.238281 -2.457031 0.1875 -2.625 C 0.03125 -3.269531 -0.0664062 -3.914062 -0.109375 -4.5625 C -0.109375 -4.90625 0.0507812 -5.109375 0.375 -5.171875 C 0.75 -5.253906 1.019531 -5.132812 1.1875 -4.8125 C 1.207031 -4.769531 1.222656 -4.707031 1.234375 -4.625 C 1.253906 -4.550781 1.273438 -4.476562 1.296875 -4.40625 C 1.328125 -4.34375 1.390625 -4.285156 1.484375 -4.234375 C 1.578125 -4.328125 1.671875 -4.410156 1.765625 -4.484375 C 1.960938 -4.660156 2.15625 -4.828125 2.34375 -4.984375 C 2.5625 -5.171875 2.796875 -5.300781 3.046875 -5.375 C 3.296875 -5.457031 3.5625 -5.5 3.84375 -5.5 C 4.507812 -5.5 5.035156 -5.238281 5.421875 -4.71875 C 5.492188 -4.613281 5.570312 -4.507812 5.65625 -4.40625 C 5.820312 -4.144531 6 -3.894531 6.1875 -3.65625 C 6.488281 -3.269531 6.890625 -3.070312 7.390625 -3.0625 C 7.898438 -3.039062 8.382812 -3.085938 8.84375 -3.203125 C 9.3125 -3.316406 9.765625 -3.492188 10.203125 -3.734375 C 10.222656 -3.742188 10.242188 -3.757812 10.265625 -3.78125 C 10.410156 -3.863281 10.5625 -3.925781 10.71875 -3.96875 C 10.875 -4.019531 11.039062 -4.03125 11.21875 -4 Z M 11.21875 -4 "/></g></g></g><g fill="#3871c1" fill-opacity="1"><g transform="translate(65.748565, 21.484264)"><g/></g></g><g fill="#f68712" fill-opacity="1"><g transform="translate(72.473616, 21.484264)"><g><path d="M 7.90625 5.234375 C 8.195312 5.242188 8.484375 5.234375 8.765625 5.203125 C 9.054688 5.171875 9.332031 5.097656 9.59375 4.984375 C 10.375 4.609375 10.640625 4.015625 10.390625 3.203125 C 10.253906 2.785156 10.039062 2.40625 9.75 2.0625 C 9.414062 1.632812 9.050781 1.238281 8.65625 0.875 C 8.257812 0.519531 7.847656 0.175781 7.421875 -0.15625 C 7.179688 -0.332031 6.957031 -0.328125 6.75 -0.140625 C 6.09375 0.347656 5.503906 0.890625 4.984375 1.484375 C 4.765625 1.753906 4.570312 2.050781 4.40625 2.375 C 4.070312 3.175781 4.238281 3.851562 4.90625 4.40625 C 5.226562 4.65625 5.585938 4.835938 5.984375 4.953125 C 6.609375 5.140625 7.25 5.234375 7.90625 5.234375 Z M 8.296875 -1.21875 C 8.328125 -1.113281 8.375 -1.023438 8.4375 -0.953125 C 8.507812 -0.878906 8.582031 -0.820312 8.65625 -0.78125 C 8.707031 -0.738281 8.757812 -0.695312 8.8125 -0.65625 C 9.007812 -0.488281 9.207031 -0.3125 9.40625 -0.125 C 9.78125 0.195312 10.140625 0.519531 10.484375 0.84375 C 10.992188 1.320312 11.40625 1.867188 11.71875 2.484375 C 12.03125 3.109375 12.109375 3.710938 11.953125 4.296875 C 11.804688 4.890625 11.347656 5.363281 10.578125 5.71875 C 10.253906 5.863281 9.910156 5.960938 9.546875 6.015625 C 8.847656 6.097656 8.144531 6.128906 7.4375 6.109375 C 6.738281 6.085938 6.046875 5.988281 5.359375 5.8125 C 5.023438 5.71875 4.703125 5.597656 4.390625 5.453125 C 4.078125 5.304688 3.796875 5.113281 3.546875 4.875 C 2.660156 4.0625 2.472656 3.109375 2.984375 2.015625 C 3.203125 1.597656 3.472656 1.210938 3.796875 0.859375 C 4.316406 0.316406 4.875 -0.1875 5.46875 -0.65625 C 5.769531 -0.894531 5.914062 -1.066406 5.90625 -1.171875 C 5.90625 -1.285156 5.734375 -1.441406 5.390625 -1.640625 C 4.785156 -2.046875 4.171875 -2.453125 3.546875 -2.859375 C 3.222656 -3.066406 2.898438 -3.28125 2.578125 -3.5 C 2.378906 -3.632812 2.179688 -3.765625 1.984375 -3.890625 C 1.484375 -4.203125 0.988281 -4.53125 0.5 -4.875 C -0.0507812 -5.257812 -0.566406 -5.679688 -1.046875 -6.140625 C -1.523438 -6.597656 -1.941406 -7.117188 -2.296875 -7.703125 C -3.046875 -8.910156 -3.320312 -10.140625 -3.125 -11.390625 C -2.9375 -12.648438 -2.390625 -13.863281 -1.484375 -15.03125 C -0.585938 -16.195312 0.546875 -17.25 1.921875 -18.1875 C 3.296875 -19.125 4.78125 -19.878906 6.375 -20.453125 C 7.976562 -21.035156 9.578125 -21.367188 11.171875 -21.453125 C 12.765625 -21.546875 14.222656 -21.320312 15.546875 -20.78125 C 16.878906 -20.25 17.976562 -19.328125 18.84375 -18.015625 C 19 -17.773438 19.128906 -17.519531 19.234375 -17.25 C 19.335938 -16.988281 19.390625 -16.707031 19.390625 -16.40625 C 19.390625 -16.113281 19.253906 -15.925781 18.984375 -15.84375 C 18.796875 -15.800781 18.625 -15.804688 18.46875 -15.859375 C 18.3125 -15.910156 18.191406 -16 18.109375 -16.125 C 18.097656 -16.164062 18.085938 -16.210938 18.078125 -16.265625 C 18.066406 -16.285156 18.0625 -16.304688 18.0625 -16.328125 C 17.488281 -17.910156 16.640625 -19.039062 15.515625 -19.71875 C 14.398438 -20.394531 13.132812 -20.710938 11.71875 -20.671875 C 10.300781 -20.628906 8.851562 -20.316406 7.375 -19.734375 C 5.894531 -19.160156 4.503906 -18.425781 3.203125 -17.53125 C 1.910156 -16.644531 0.828125 -15.691406 -0.046875 -14.671875 C -0.929688 -13.648438 -1.476562 -12.65625 -1.6875 -11.6875 C -1.894531 -10.5 -1.691406 -9.394531 -1.078125 -8.375 C -0.578125 -7.507812 0.0625 -6.769531 0.84375 -6.15625 C 1.4375 -5.6875 2.046875 -5.238281 2.671875 -4.8125 C 3.234375 -4.457031 3.785156 -4.101562 4.328125 -3.75 C 5.085938 -3.269531 5.835938 -2.78125 6.578125 -2.28125 C 6.785156 -2.125 6.976562 -2.050781 7.15625 -2.0625 C 7.34375 -2.082031 7.535156 -2.160156 7.734375 -2.296875 C 8.722656 -2.890625 9.695312 -3.4375 10.65625 -3.9375 C 11.613281 -4.4375 12.144531 -4.570312 12.25 -4.34375 C 12.351562 -4.125 12.203125 -3.863281 11.796875 -3.5625 C 10.835938 -3.050781 9.914062 -2.476562 9.03125 -1.84375 C 8.976562 -1.820312 8.925781 -1.789062 8.875 -1.75 C 8.644531 -1.625 8.453125 -1.445312 8.296875 -1.21875 Z M 8.296875 -1.21875 "/></g></g></g><g fill="#f68712" fill-opacity="1"><g transform="translate(83.44713, 21.484264)"><g><path d="M 7.78125 -4.28125 C 7.84375 -4.269531 7.882812 -4.25 7.90625 -4.21875 C 7.9375 -4.195312 7.960938 -4.148438 7.984375 -4.078125 C 8.003906 -3.992188 7.976562 -3.898438 7.90625 -3.796875 C 7.832031 -3.703125 7.765625 -3.625 7.703125 -3.5625 C 7.242188 -3.125 6.703125 -2.863281 6.078125 -2.78125 C 5.722656 -2.726562 5.363281 -2.710938 5 -2.734375 C 4.644531 -2.765625 4.296875 -2.851562 3.953125 -3 C 3.703125 -3.125 3.46875 -3.085938 3.25 -2.890625 C 2.800781 -2.484375 2.335938 -2.09375 1.859375 -1.71875 C 1.609375 -1.53125 1.34375 -1.375 1.0625 -1.25 C 0.789062 -1.125 0.492188 -1.050781 0.171875 -1.03125 C -0.773438 -1.050781 -1.148438 -1.515625 -0.953125 -2.421875 C -0.941406 -2.460938 -0.925781 -2.492188 -0.90625 -2.515625 C -0.632812 -3.253906 -0.273438 -3.914062 0.171875 -4.5 C 0.617188 -5.09375 1.1875 -5.585938 1.875 -5.984375 C 2.320312 -6.253906 2.804688 -6.359375 3.328125 -6.296875 C 3.460938 -6.265625 3.59375 -6.210938 3.71875 -6.140625 C 3.875 -6.066406 3.9375 -5.945312 3.90625 -5.78125 C 3.894531 -5.738281 3.867188 -5.695312 3.828125 -5.65625 C 3.796875 -5.613281 3.757812 -5.578125 3.71875 -5.546875 C 3.695312 -5.515625 3.664062 -5.492188 3.625 -5.484375 C 3.59375 -5.472656 3.554688 -5.46875 3.515625 -5.46875 C 3.140625 -5.457031 2.816406 -5.347656 2.546875 -5.140625 C 2.285156 -4.941406 2.039062 -4.707031 1.8125 -4.4375 C 1.5625 -4.164062 1.332031 -3.863281 1.125 -3.53125 C 0.914062 -3.195312 0.742188 -2.796875 0.609375 -2.328125 C 1.097656 -2.617188 1.488281 -2.90625 1.78125 -3.1875 C 1.84375 -3.25 1.90625 -3.304688 1.96875 -3.359375 C 2.019531 -3.410156 2.066406 -3.457031 2.109375 -3.5 C 2.359375 -3.726562 2.617188 -3.929688 2.890625 -4.109375 C 3.203125 -4.285156 3.507812 -4.375 3.8125 -4.375 C 4.125 -4.375 4.425781 -4.25 4.71875 -4 C 5.113281 -3.644531 5.5 -3.503906 5.875 -3.578125 C 6.25 -3.660156 6.597656 -3.796875 6.921875 -3.984375 C 7.242188 -4.179688 7.53125 -4.28125 7.78125 -4.28125 Z M 7.78125 -4.28125 "/></g></g></g><g fill="#f68712" fill-opacity="1"><g transform="translate(90.646641, 21.484264)"><g><path d="M 11.21875 -4 C 11.21875 -4 11.222656 -4 11.234375 -4 C 11.296875 -3.988281 11.359375 -3.96875 11.421875 -3.9375 C 11.484375 -3.90625 11.523438 -3.84375 11.546875 -3.75 C 11.578125 -3.59375 11.53125 -3.46875 11.40625 -3.375 C 10.894531 -3.019531 10.347656 -2.738281 9.765625 -2.53125 C 9.234375 -2.363281 8.703125 -2.253906 8.171875 -2.203125 C 7.640625 -2.160156 7.097656 -2.164062 6.546875 -2.21875 C 5.835938 -2.289062 5.265625 -2.628906 4.828125 -3.234375 C 4.691406 -3.421875 4.550781 -3.609375 4.40625 -3.796875 C 4.269531 -3.984375 4.128906 -4.175781 3.984375 -4.375 C 3.859375 -4.53125 3.703125 -4.546875 3.515625 -4.421875 C 3.285156 -4.265625 3.082031 -4.082031 2.90625 -3.875 C 2.726562 -3.664062 2.554688 -3.453125 2.390625 -3.234375 C 2.378906 -3.203125 2.367188 -3.175781 2.359375 -3.15625 C 2.296875 -3.082031 2.234375 -3 2.171875 -2.90625 C 2.097656 -2.769531 2.007812 -2.644531 1.90625 -2.53125 C 1.75 -2.34375 1.539062 -2.222656 1.28125 -2.171875 C 1.019531 -2.117188 0.769531 -2.140625 0.53125 -2.234375 C 0.351562 -2.328125 0.238281 -2.457031 0.1875 -2.625 C 0.03125 -3.269531 -0.0664062 -3.914062 -0.109375 -4.5625 C -0.109375 -4.90625 0.0507812 -5.109375 0.375 -5.171875 C 0.75 -5.253906 1.019531 -5.132812 1.1875 -4.8125 C 1.207031 -4.769531 1.222656 -4.707031 1.234375 -4.625 C 1.253906 -4.550781 1.273438 -4.476562 1.296875 -4.40625 C 1.328125 -4.34375 1.390625 -4.285156 1.484375 -4.234375 C 1.578125 -4.328125 1.671875 -4.410156 1.765625 -4.484375 C 1.960938 -4.660156 2.15625 -4.828125 2.34375 -4.984375 C 2.5625 -5.171875 2.796875 -5.300781 3.046875 -5.375 C 3.296875 -5.457031 3.5625 -5.5 3.84375 -5.5 C 4.507812 -5.5 5.035156 -5.238281 5.421875 -4.71875 C 5.492188 -4.613281 5.570312 -4.507812 5.65625 -4.40625 C 5.820312 -4.144531 6 -3.894531 6.1875 -3.65625 C 6.488281 -3.269531 6.890625 -3.070312 7.390625 -3.0625 C 7.898438 -3.039062 8.382812 -3.085938 8.84375 -3.203125 C 9.3125 -3.316406 9.765625 -3.492188 10.203125 -3.734375 C 10.222656 -3.742188 10.242188 -3.757812 10.265625 -3.78125 C 10.410156 -3.863281 10.5625 -3.925781 10.71875 -3.96875 C 10.875 -4.019531 11.039062 -4.03125 11.21875 -4 Z M 11.21875 -4 "/></g></g></g><g fill="#f68712" fill-opacity="1"><g transform="translate(101.13565, 21.484264)"><g><path d="M 12.921875 -4.28125 C 13.109375 -4.238281 13.195312 -4.128906 13.1875 -3.953125 C 13.175781 -3.773438 13.113281 -3.597656 13 -3.421875 C 12.695312 -2.972656 12.3125 -2.578125 11.84375 -2.234375 C 11.375 -1.890625 10.890625 -1.644531 10.390625 -1.5 C 9.890625 -1.363281 9.425781 -1.390625 9 -1.578125 C 8.570312 -1.765625 8.238281 -2.164062 8 -2.78125 C 7.789062 -3.332031 7.664062 -3.898438 7.625 -4.484375 C 7.613281 -4.679688 7.601562 -5.175781 7.59375 -5.96875 C 7.59375 -6.757812 7.585938 -7.59375 7.578125 -8.46875 C 7.566406 -9.34375 7.5625 -9.992188 7.5625 -10.421875 C 7.5625 -10.617188 7.5625 -10.726562 7.5625 -10.75 C 7.238281 -9.570312 6.859375 -8.351562 6.421875 -7.09375 C 5.984375 -5.832031 5.671875 -4.992188 5.484375 -4.578125 C 5.117188 -3.796875 4.710938 -3.03125 4.265625 -2.28125 C 3.953125 -1.789062 3.578125 -1.351562 3.140625 -0.96875 C 2.796875 -0.65625 2.378906 -0.46875 1.890625 -0.40625 C 1.398438 -0.34375 0.941406 -0.40625 0.515625 -0.59375 C 0.0976562 -0.78125 -0.175781 -1.101562 -0.3125 -1.5625 C -0.457031 -2.101562 -0.488281 -2.625 -0.40625 -3.125 C -0.332031 -3.632812 -0.125 -4.113281 0.21875 -4.5625 C 0.613281 -5.039062 1.0625 -5.351562 1.5625 -5.5 C 2.0625 -5.65625 2.613281 -5.664062 3.21875 -5.53125 C 3.40625 -5.476562 3.59375 -5.414062 3.78125 -5.34375 C 3.863281 -5.300781 3.953125 -5.265625 4.046875 -5.234375 C 4.347656 -5.597656 4.675781 -6.332031 5.03125 -7.4375 C 5.394531 -8.550781 5.722656 -9.6875 6.015625 -10.84375 C 6.316406 -12 6.523438 -12.835938 6.640625 -13.359375 C 6.992188 -14.929688 7.285156 -16.488281 7.515625 -18.03125 C 7.679688 -19.03125 7.859375 -20.035156 8.046875 -21.046875 C 8.117188 -21.367188 8.300781 -21.578125 8.59375 -21.671875 C 8.894531 -21.773438 9.175781 -21.726562 9.4375 -21.53125 C 9.5625 -21.4375 9.625 -21.3125 9.625 -21.15625 C 9.582031 -19.332031 9.503906 -17.5 9.390625 -15.65625 C 9.347656 -14.914062 9.304688 -14.1875 9.265625 -13.46875 C 9.191406 -12.0625 9.140625 -10.65625 9.109375 -9.25 C 9.078125 -7.84375 9.09375 -6.429688 9.15625 -5.015625 C 9.15625 -4.972656 9.15625 -4.921875 9.15625 -4.859375 C 9.15625 -4.566406 9.179688 -4.222656 9.234375 -3.828125 C 9.285156 -3.441406 9.390625 -3.109375 9.546875 -2.828125 C 9.703125 -2.554688 9.953125 -2.46875 10.296875 -2.5625 C 10.554688 -2.644531 10.820312 -2.785156 11.09375 -2.984375 C 11.363281 -3.179688 11.625 -3.390625 11.875 -3.609375 C 12.101562 -3.804688 12.304688 -3.96875 12.484375 -4.09375 C 12.660156 -4.226562 12.804688 -4.289062 12.921875 -4.28125 Z M 2.1875 -1.84375 C 2.5 -2.195312 2.769531 -2.570312 3 -2.96875 C 3.226562 -3.363281 3.457031 -3.804688 3.6875 -4.296875 C 3.394531 -4.429688 3.113281 -4.535156 2.84375 -4.609375 C 2.582031 -4.679688 2.328125 -4.664062 2.078125 -4.5625 C 1.828125 -4.46875 1.59375 -4.234375 1.375 -3.859375 C 0.957031 -3.128906 0.894531 -2.363281 1.1875 -1.5625 C 1.257812 -1.382812 1.359375 -1.304688 1.484375 -1.328125 C 1.617188 -1.347656 1.75 -1.414062 1.875 -1.53125 C 2.007812 -1.65625 2.113281 -1.757812 2.1875 -1.84375 Z M 2.1875 -1.84375 "/></g></g></g></svg>